:SAMPLES-PER-SECOND 30
:FRAME-RANGE 1-564
:FULLY-SPECIFIED
:DEGREES
371
root  11.6179 38.1572 -85.4855 -178.237 -20.8343 -176.056
RightUpLeg  -19.0964 -8.00638 7.39132
RightLeg  22.8318 -3.11275 -1.65975
RightFoot  -6.47614 0.0925049 -3.20689
RightToes  1.21801e-010 1.2921e-014 -6.02303e-014
Spine  1.65307 -0.323649 5.37403
Spine1  7.53792 0.144151 -2.13543
HEad  33.2933 -7.10517 5.63531
LeftShoulder1  2.08307 -7.51863 -12.4164
LeftArm  8.38977 -29.454 -40.3466
LeftForeArm  -21.3748 -25.9199 -6.57858
LeftHand  0.26836 -0.258395 -5.52672
RightShoulder  2.48086 6.15725 19.9075
RightArm  -9.18839 40.3428 57.3425
RightForeArm  14.3539 13.4113 7.2901
RightHand  -0.0868004 -1.03073 -2.3121
LeftUpLeg  -30.2295 -6.459 5.64009
LeftLeg  44.7129 6.1376 6.8701
LeftFoot  -9.27918 0.117256 -3.42271
LeftToes  1.70735e-010 3.74918e-011 3.68705e-011
372
root  11.5852 38.1667 -86.2695 -177.633 -20.707 -176.188
RightUpLeg  -18.4767 -8.06062 7.66928
RightLeg  22.9214 -3.12984 -1.67717
RightFoot  -7.91056 0.0561791 -3.65919
RightToes  1.21801e-010 1.2921e-014 -6.02303e-014
Spine  2.25502 -0.081559 5.25248
Spine1  7.82486 0.442548 -2.59205
HEad  33.1288 -6.90855 5.64304
LeftShoulder1  2.16169 -8.0087 -12.2624
LeftArm  10.3733 -31.7973 -40.6965
LeftForeArm  -23.2455 -23.527 -6.15415
LeftHand  0.277361 -0.357512 -5.6016
RightShoulder  2.55352 6.55605 19.5635
RightArm  -13.0681 41.6429 56.991
RightForeArm  15.925 11.4408 6.903
RightHand  -0.0852399 -0.897811 -2.09765
LeftUpLeg  -31.6663 -6.6219 5.27116
LeftLeg  35.4796 4.46239 3.77034
LeftFoot  -7.03555 0.179088 -3.64062
LeftToes  1.70735e-010 3.74918e-011 3.68705e-011
373
root  11.5335 38.1524 -87.0356 -177.191 -20.5468 -176.036
RightUpLeg  -17.9179 -7.82892 8.12958
RightLeg  23.3051 -3.27483 -1.77037
RightFoot  -9.22267 0.00945824 -3.87946
RightToes  1.21801e-010 1.2921e-014 -6.02303e-014
Spine  2.98243 0.0498359 5.38133
Spine1  8.03925 0.699246 -3.08765
HEad  33.2907 -6.66795 5.50194
LeftShoulder1  2.23325 -8.38421 -12.2601
LeftArm  8.83977 -33.8594 -41.0359
LeftForeArm  -21.6264 -20.5886 -6.76695
LeftHand  0.290372 -0.489088 -5.7181
RightShoulder  2.61863 6.94064 19.2043
RightArm  -15.51 42.9021 57.0016
RightForeArm  16.6162 9.40179 6.23001
RightHand  -0.0877912 -0.667582 -2.08768
LeftUpLeg  -32.2385 -6.2269 4.89938
LeftLeg  26.9995 5.05825 3.13158
LeftFoot  -4.91417 0.26655 -4.22155
LeftToes  1.70735e-010 3.74918e-011 3.68705e-011
374
root  11.466 38.1077 -87.7869 -176.88 -20.3843 -175.947
RightUpLeg  -17.4008 -7.41073 8.47237
RightLeg  24.0563 -3.69779 -2.0284
RightFoot  -10.6005 -0.0454814 -4.03982
RightToes  1.21801e-010 1.2921e-014 -6.02303e-014
Spine  3.722 0.128974 5.31832
Spine1  8.64642 1.00445 -3.61863
HEad  33.2823 -6.44195 5.40403
LeftShoulder1  2.32127 -8.90436 -12.1561
LeftArm  4.90515 -35.7068 -41.1233
LeftForeArm  -18.333 -17.6248 -7.98825
LeftHand  0.294246 -0.492264 -5.79141
RightShoulder  2.69931 7.36457 18.9279
RightArm  -16.6685 44.0781 56.9075
RightForeArm  16.4916 7.59298 5.41417
RightHand  -0.104444 -0.366441 -2.3862
LeftUpLeg  -32.1006 -5.31923 4.10336
LeftLeg  19.6481 8.11367 3.52743
LeftFoot  -2.33797 0.364319 -4.44861
LeftToes  1.70735e-010 3.74918e-011 3.68705e-011
375
root  11.3692 37.9935 -88.5351 -176.511 -20.2687 -175.857
RightUpLeg  -17.2033 -7.17031 8.79369
RightLeg  25.38 -3.89776 -2.23968
RightFoot  -12.2603 -0.115337 -4.05175
RightToes  1.21801e-010 1.2921e-014 -6.02303e-014
Spine  4.48284 0.251591 5.15295
Spine1  9.32919 1.29351 -3.85385
HEad  32.8108 -6.59296 5.39479
LeftShoulder1  2.39505 -9.4433 -11.9056
LeftArm  -0.100973 -37.5411 -41.3694
LeftForeArm  -14.229 -14.6618 -9.00808
LeftHand  0.312111 -0.447295 -6.1985
RightShoulder  2.7529 7.71307 18.5912
RightArm  -17.4702 45.1619 56.7889
RightForeArm  16.3089 5.8685 4.51676
RightHand  -0.120835 -0.0838012 -2.65173
LeftUpLeg  -31.9496 -3.54916 2.76772
LeftLeg  14.5129 8.68589 3.24515
LeftFoot  1.16828 0.629944 -5.81025
LeftToes  1.70735e-010 3.74918e-011 3.68705e-011
376
root  11.2626 37.8345 -89.3168 -176.688 -20.4746 -175.178
RightUpLeg  -16.5603 -6.57355 9.67702
RightLeg  26.7012 -4.79991 -2.84857
RightFoot  -13.9508 -0.185485 -4.00376
RightToes  1.21801e-010 1.2921e-014 -6.02303e-014
Spine  5.61186 0.299228 5.28944
Spine1  10.0121 1.31126 -3.45766
HEad  31.898 -6.60712 5.21633
LeftShoulder1  2.50079 -9.95976 -11.9768
LeftArm  -5.5076 -39.0984 -41.3673
LeftForeArm  -9.20396 -12.0788 -9.30984
LeftHand  0.304545 -0.194514 -6.35447
RightShoulder  2.79152 7.97039 18.3464
RightArm  -18.2898 46.1231 56.6129
RightForeArm  16.9382 4.34676 3.67092
RightHand  -0.146557 0.166565 -3.0994
LeftUpLeg  -31.4913 -2.04642 2.21405
LeftLeg  12.3632 7.22009 2.65204
LeftFoot  1.7928 0.850597 -7.47711
LeftToes  1.70735e-010 3.74918e-011 3.68705e-011
377
root  11.1699 37.5903 -90.0681 -176.566 -20.4927 -174.915
RightUpLeg  -16.7966 -6.14866 10.1934
RightLeg  29.3339 -5.17054 -3.37103
RightFoot  -15.9033 -0.26332 -3.91124
RightToes  1.21801e-010 1.2921e-014 -6.02303e-014
Spine  7.07268 0.282341 4.58463
Spine1  10.5218 1.3143 -3.13091
HEad  30.7708 -6.3908 5.41869
LeftShoulder1  2.49887 -10.2673 -11.4865
LeftArm  -8.09877 -40.4071 -41.4777
LeftForeArm  -7.55052 -10.2352 -9.48415
LeftHand  0.284601 0.0428148 -6.23425
RightShoulder  2.88558 8.30339 18.4573
RightArm  -18.8498 46.7909 56.2419
RightForeArm  17.4175 3.66317 3.22356
RightHand  -0.172617 0.335988 -3.55607
LeftUpLeg  -31.672 -2.36545 2.38515
LeftLeg  13.4612 7.46702 2.86425
LeftFoot  0.941654 0.787857 -7.36952
LeftToes  1.70735e-010 3.74918e-011 3.68705e-011
378
root  11.0508 37.2788 -90.698 -175.18 -19.4898 -175.392
RightUpLeg  -19.9827 -5.92903 9.86946
RightLeg  35.2343 -3.94261 -3.24113
RightFoot  -17.1758 -0.27025 -3.02418
RightToes  1.21801e-010 1.2921e-014 -6.02303e-014
Spine  8.51327 0.363564 3.25476
Spine1  10.4598 1.76122 -3.83796
HEad  29.45 -5.81873 5.70292
LeftShoulder1  2.47641 -10.0129 -11.6904
LeftArm  -8.65969 -41.774 -40.7641
LeftForeArm  -5.69521 -9.47383 -9.65868
LeftHand  0.26762 0.811282 -6.97578
RightShoulder  2.94194 8.56493 18.3799
RightArm  -19.1612 47.4728 56.6552
RightForeArm  18.1783 3.04278 2.71304
RightHand  -0.188576 0.720977 -3.6731
LeftUpLeg  -33.5389 -2.92422 2.45307
LeftLeg  15.9791 8.55511 3.61409
LeftFoot  3.2602 0.71715 -5.75004
LeftToes  1.70735e-010 3.74918e-011 3.68705e-011
379
root  10.9096 36.8968 -91.2172 -173.528 -18.4203 -175.488
RightUpLeg  -26.3843 -5.94543 9.41636
RightLeg  45.6056 -0.886897 -1.28239
RightFoot  -15.5328 -0.126917 -0.597096
RightToes  1.21801e-010 1.2921e-014 -6.02303e-014
Spine  10.5457 0.292006 2.60177
Spine1  9.90194 2.07774 -4.69796
HEad  26.7651 -4.91669 5.85616
LeftShoulder1  2.45732 -10.0897 -11.4139
LeftArm  -10.456 -42.2589 -40.0512
LeftForeArm  -4.53352 -9.23711 -9.32031
LeftHand  0.259996 0.903701 -6.93675
RightShoulder  2.97327 8.86318 18.0018
RightArm  -19.6547 48.473 57.348
RightForeArm  18.4469 2.67522 1.96689
RightHand  -0.182593 0.965896 -3.44439
LeftUpLeg  -36.8677 -1.68046 2.44884
LeftLeg  19.7238 7.92005 3.60986
LeftFoot  6.64248 0.470968 -3.23194
LeftToes  1.70735e-010 3.74918e-011 3.68705e-011
380
root  10.7342 36.603 -91.6908 -171.781 -17.9903 -175.771
RightUpLeg  -33.8955 -7.02777 8.20307
RightLeg  56.2537 2.14714 3.03941
RightFoot  -10.0935 -0.0945545 2.39484
RightToes  1.21801e-010 1.2921e-014 -6.02303e-014
Spine  12.6 0.101268 2.13394
Spine1  9.72852 2.13927 -5.11324
HEad  23.6114 -4.28968 5.32071
LeftShoulder1  2.55489 -10.7304 -11.2536
LeftArm  -10.6924 -43.2235 -38.714
LeftForeArm  -5.76837 -9.11098 -9.46377
LeftHand  0.215815 0.560869 -5.31773
RightShoulder  2.95869 9.25569 17.0464
RightArm  -20.64 49.7065 57.2612
RightForeArm  18.8723 2.62224 1.13172
RightHand  -0.163494 1.24305 -2.98981
LeftUpLeg  -39.8915 0.403419 1.19168
LeftLeg  23.1334 5.77352 3.04696
LeftFoot  7.09867 -0.23326 1.17083
LeftToes  1.70735e-010 3.74918e-011 3.68705e-011
